<svg width="20" height="20" viewBox="0 0 20 20" fill="none" xmlns="http://www.w3.org/2000/svg">
<g clip-path="url(#clip0_16_0)">
<path d="M14.1667 18.3333H16.6667C17.1087 18.3333 17.5326 18.1577 17.8452 17.8452C18.1577 17.5326 18.3333 17.1087 18.3333 16.6667V10.8333C18.3333 10.3913 18.1577 9.96737 17.8452 9.65481C17.5326 9.34225 17.1087 9.16666 16.6667 9.16666H14.1667M8.33333 7.49999V4.16666C8.33333 3.50362 8.59672 2.86773 9.06557 2.39889C9.53441 1.93005 10.1703 1.66666 10.8333 1.66666L14.1667 9.16666V18.3333H4.76667C4.36473 18.3379 3.97468 18.197 3.66841 17.9367C3.36214 17.6763 3.16027 17.3141 3.1 16.9167L1.95 9.41666C1.91374 9.17779 1.92985 8.93389 1.99722 8.70187C2.06458 8.46984 2.18158 8.25524 2.34012 8.07292C2.49865 7.8906 2.69493 7.74493 2.91536 7.646C3.13578 7.54708 3.37508 7.49725 3.61667 7.49999H8.33333Z" stroke="#AAAAAA" stroke-width="2" stroke-linecap="round" stroke-linejoin="round"/>
</g>
<defs>
<clipPath id="clip0_16_0">
<rect width="20" height="20" fill="white" transform="matrix(-1 0 0 1 20 0)"/>
</clipPath>
</defs>
</svg>
